<?xml version="1.0" encoding="UTF-8" standalone="no"?>
<!-- Created with Inkscape (http://www.inkscape.org/) -->

<svg
   width="210mm"
   height="297mm"
   viewBox="0 0 210 297"
   version="1.1"
   id="svg8"
   enable-background="new"
   inkscape:version="1.1 (c68e22c387, 2021-05-23)"
   sodipodi:docname="viking-logo.svg"
   xmlns:inkscape="http://www.inkscape.org/namespaces/inkscape"
   xmlns:sodipodi="http://sodipodi.sourceforge.net/DTD/sodipodi-0.dtd"
   xmlns="http://www.w3.org/2000/svg"
   xmlns:svg="http://www.w3.org/2000/svg"
   xmlns:rdf="http://www.w3.org/1999/02/22-rdf-syntax-ns#"
   xmlns:cc="http://creativecommons.org/ns#"
   xmlns:dc="http://purl.org/dc/elements/1.1/">
  <defs
     id="defs2">
    <inkscape:path-effect
       effect="skeletal"
       id="path-effect844"
       is_visible="true"
       pattern="m 2.1733631,5 c 0,-2.76 2.24,-5 5,-5 2.76,0 4.9999999,2.24 4.9999999,5 0,2.76 -2.2399999,5 -4.9999999,5 -2.76,0 -5,-2.24 -5,-5 z"
       copytype="single_stretched"
       prop_scale="0.26458333"
       scale_y_rel="false"
       spacing="0"
       normal_offset="0"
       tang_offset="0"
       prop_units="false"
       vertical_pattern="false"
       fuse_tolerance="0" />
    <inkscape:path-effect
       fuse_tolerance="0"
       vertical_pattern="false"
       prop_units="false"
       tang_offset="0"
       normal_offset="0"
       spacing="0"
       scale_y_rel="false"
       prop_scale="0.26458333"
       copytype="single_stretched"
       pattern="m 31.27753,5 c 0,-2.76 2.24,-5 5,-5 2.76,0 5,2.24 5,5 0,2.76 -2.24,5 -5,5 -2.76,0 -5,-2.24 -5,-5 z"
       is_visible="true"
       id="path-effect840"
       effect="skeletal" />
    <inkscape:path-effect
       effect="skeletal"
       id="path-effect836"
       is_visible="true"
       pattern="M 0,5 C 0,2.24 2.24,0 5,0 7.76,0 10,2.24 10,5 10,7.76 7.76,10 5,10 2.24,10 0,7.76 0,5 Z"
       copytype="single_stretched"
       prop_scale="0.26458333"
       scale_y_rel="false"
       spacing="0"
       normal_offset="0"
       tang_offset="0"
       prop_units="false"
       vertical_pattern="false"
       fuse_tolerance="0" />
    <inkscape:path-effect
       effect="skeletal"
       id="path-effect4575"
       is_visible="true"
       pattern="m -2.6324725e-7,5.5291667 c 0,-2.76 2.23999996324725,-4.99999999 4.99999996324725,-4.99999999 2.76,0 5,2.23999999 5,4.99999999 0,2.76 -2.24,5.0000003 -5,5.0000003 -2.76,0 -4.99999996324725,-2.2400003 -4.99999996324725,-5.0000003 z"
       copytype="single_stretched"
       prop_scale="0.26458333"
       scale_y_rel="false"
       spacing="0"
       normal_offset="0"
       tang_offset="0"
       prop_units="false"
       vertical_pattern="false"
       fuse_tolerance="0" />
    <inkscape:path-effect
       effect="skeletal"
       id="path-effect4571"
       is_visible="true"
       pattern="M 0,5 C 0,2.24 2.24,0 5,0 7.76,0 10,2.24 10,5 10,7.76 7.76,10 5,10 2.24,10 0,7.76 0,5 Z"
       copytype="single_stretched"
       prop_scale="0.26458333"
       scale_y_rel="false"
       spacing="0"
       normal_offset="0"
       tang_offset="0"
       prop_units="false"
       vertical_pattern="false"
       fuse_tolerance="0" />
    <inkscape:path-effect
       effect="skeletal"
       id="path-effect4567"
       is_visible="true"
       pattern="m -0.06411074,5 c 0,-2.76 2.24000004,-5 5.00000004,-5 2.76,0 5,2.24 5,5 0,2.76 -2.24,5 -5,5 -2.76,0 -5.00000004,-2.24 -5.00000004,-5 z"
       copytype="single_stretched"
       prop_scale="0.26458333"
       scale_y_rel="false"
       spacing="0"
       normal_offset="0"
       tang_offset="0"
       prop_units="false"
       vertical_pattern="false"
       fuse_tolerance="0" />
  </defs>
  <sodipodi:namedview
     id="base"
     pagecolor="#ffffff"
     bordercolor="#666666"
     borderopacity="1.0"
     inkscape:pageopacity="0.0"
     inkscape:pageshadow="2"
     inkscape:zoom="1.28"
     inkscape:cx="-9.765625"
     inkscape:cy="804.29688"
     inkscape:document-units="px"
     inkscape:current-layer="layer1"
     showgrid="false"
     showborder="false"
     inkscape:window-width="1366"
     inkscape:window-height="705"
     inkscape:window-x="-8"
     inkscape:window-y="-8"
     inkscape:window-maximized="1"
     inkscape:pagecheckerboard="0" />
  <metadata
     id="metadata5">
    <rdf:RDF>
      <cc:Work
         rdf:about="">
        <dc:format>image/svg+xml</dc:format>
        <dc:type
           rdf:resource="http://purl.org/dc/dcmitype/StillImage" />
      </cc:Work>
    </rdf:RDF>
  </metadata>
  <g
     inkscape:label="Layer 1"
     inkscape:groupmode="layer"
     id="layer1"
     style="">
    <circle
       style="opacity:0.75;fill:#376bba;fill-opacity:1;stroke:none;stroke-width:0.22185558;stroke-opacity:1"
       id="path858"
       cx="-47.107658"
       cy="225.93785"
       r="25.513391"
       inkscape:export-xdpi="95.573334"
       inkscape:export-ydpi="95.573334"
       inkscape:export-filename="D:\Viking\assets\logo\viking-logo_192.png" />
    <g
       id="g869"
       inkscape:export-xdpi="96"
       inkscape:export-ydpi="96"
       style="opacity:1">
      <path
         sodipodi:nodetypes="cc"
         inkscape:original-d="m -63.941528,238.46797 c 11.22532,8.84199 22.45064,6.85403 33.67596,0.80181"
         inkscape:path-effect="#path-effect4567"
         inkscape:connector-curvature="0"
         id="path4565"
         d="m -63.941528,238.46797 c 0.252639,-0.32074 1.950016,0.7832 4.861639,2.06434 2.903124,1.2774 7.019373,2.69757 11.71947,2.60504 0.07409,-0.001 0.148065,-0.003 0.221939,-0.005 4.597414,-0.0957 8.869236,-1.44003 11.810911,-2.44242 3.016083,-1.02774 4.874645,-1.76717 5.062006,-1.41966 0.15323,0.2842 -1.384835,1.62044 -4.328582,3.13739 -2.889708,1.48911 -7.318753,3.20712 -12.474471,3.36938 -0.0834,0.002 -0.166894,0.003 -0.250482,0.004 -5.336356,0.0642 -9.772841,-1.79441 -12.642543,-3.59449 -2.890541,-1.81314 -4.171505,-3.47526 -3.979887,-3.71853 z"
         style="fill:#000000;stroke:none;stroke-width:0.26458332px;stroke-linecap:butt;stroke-linejoin:miter;stroke-opacity:1" />
      <path
         sodipodi:nodetypes="ccc"
         inkscape:original-d="m -63.877417,238.99714 c 1.509598,-9.80481 7.959578,-14.66924 16.570711,-17.37251 9.965765,2.56781 16.558773,7.78564 16.570711,18.17432"
         inkscape:path-effect="#path-effect4575"
         inkscape:connector-curvature="0"
         id="path4573"
         d="m -63.877417,238.99714 c 0.275009,0.0423 -1.392498,-5.7661 4.830229,-12.1693 2.946385,-2.89125 6.918504,-5.02534 11.707419,-6.47442 0.230834,0.056 0.462589,0.11417 0.695044,0.17465 4.997097,1.30019 9.163402,3.37559 12.17246,6.44247 2.889307,3.12076 3.818407,6.7604 4.061381,9.06856 0.254794,2.42044 -0.129467,3.75963 -0.325111,3.75985 -0.285803,3.3e-4 -0.390885,-1.33097 -1.002714,-3.50949 -0.581806,-2.07161 -1.756316,-5.26788 -4.366356,-7.70207 -2.572608,-2.56974 -6.082072,-4.23501 -10.548026,-5.51735 -0.207143,-0.0595 -0.414079,-0.11751 -0.620552,-0.1742 -4.251979,1.38926 -7.620051,3.13535 -10.189443,5.57193 -5.356001,4.81121 -5.934683,10.60322 -6.414331,10.52937 z"
         style="fill:#000000;stroke:none;stroke-width:0.26458332px;stroke-linecap:butt;stroke-linejoin:miter;stroke-opacity:1" />
      <g
         transform="translate(0.14515927)"
         id="g848"
         style="">
        <path
           sodipodi:nodetypes="ccccc"
           inkscape:original-d="m -30.747088,237.23747 c -1.034326,1.05654 5.342663,-2.43501 6.105498,-12.24194 -1.649873,-9.79182 -11.39547,-7.24965 -15.874998,-18.89881 2.265249,5.78566 -5.330177,4.97298 8.315475,16.25298 0.985328,3.69416 -1.730898,3.68676 -3.590774,4.53571"
           inkscape:path-effect="#path-effect840"
           inkscape:connector-curvature="0"
           id="path838"
           d="m -30.747088,237.23747 c 0.135867,0.13301 -0.09518,0.0252 -0.05612,0.0975 0,0 -1e-6,0 -1e-6,0 l 0,0 c -0.01062,0.0152 0.002,0.0324 0.02329,0.02 0.114406,-0.0663 0.12701,-0.17378 0.273981,-0.4422 0.479507,-0.49556 0.944039,-1.02209 1.668766,-2.09456 1.425678,-2.10181 2.862013,-5.25264 3.109399,-9.77423 -0.34143,-1.65144 -1.073244,-3.39097 -2.362082,-4.66423 -1e-6,0 -2e-6,0 -2e-6,0 -1.080021,-1.15541 -2.496292,-2.01326 -4.123827,-3.04745 -1.670492,-1.03929 -3.493132,-2.23801 -5.094729,-3.80522 -0.197668,-0.26725 -0.387783,-0.54239 -0.570299,-0.82501 -1.302377,-2.01668 -2.150523,-4.30823 -2.639296,-6.6091 0.927393,1.15491 1.461382,2.4275 1.572434,3.64149 -0.201433,1.03445 -0.51435,1.79606 -0.46384,2.37153 -0.04161,0.97591 0.672556,2.05232 1.367061,3.0633 1.944319,2.67034 4.795413,5.20515 6.482811,6.7688 0.260548,0.92858 0.337402,1.86476 0.122523,2.73608 0,0 -1e-6,0 -1e-6,0 -0.234366,0.68752 -0.692548,1.17297 -1.16625,1.46469 -1.907341,1.1179 -3.265327,0.57842 -3.18862,0.74647 -0.08301,-0.18185 1.317456,-0.51318 2.536071,-1.65533 0.251366,-0.22866 0.473792,-0.55728 0.522963,-0.90933 0,0 0,-1e-5 0,-1e-5 0.143402,-0.44022 0.04541,-0.92882 -0.10982,-1.55951 -1.867209,-1.37072 -4.783558,-3.52366 -6.992193,-6.20054 -0.899401,-1.04239 -1.834396,-2.48927 -2.008712,-4.3411 -0.03277,-1.22007 0.266972,-2.17044 0.428037,-2.97248 0.549372,-1.0035 0.833237,-2.10174 0.900384,-3.14672 1.081264,1.7833 2.504288,3.5171 4.295966,4.96064 0.251431,0.20258 0.508442,0.39808 0.770951,0.58616 1.333357,1.33677 3.007726,2.44539 4.625999,3.50568 1.615137,1.03599 3.192944,2.09031 4.535779,3.56696 0,0 1e-6,0 1e-6,0 1.625701,1.89331 2.445268,4.15518 2.731065,6.22717 -0.498334,5.07427 -2.498014,8.58912 -4.343971,10.61531 -0.892662,0.97287 -1.654902,1.52428 -2.268152,1.82383 -0.245591,0.0297 -0.503723,0.0975 -0.678541,0.0929 -0.03766,-0.001 -0.06762,-0.0244 -0.06543,-0.0503 l 0,0 c 0,0 0,0 0,0 0.04356,-0.24855 0.143164,-0.21199 0.164408,-0.19119 z"
           style="fill:#000000;stroke:none;stroke-width:0.26458332px;stroke-linecap:butt;stroke-linejoin:miter;stroke-opacity:1" />
        <path
           style="fill:#000000;stroke:none;stroke-width:0.26458332px;stroke-linecap:butt;stroke-linejoin:miter;stroke-opacity:1"
           d="m -63.758549,237.23747 c 0.02124,-0.0208 0.120848,-0.0574 0.164408,0.19119 0,0 0,0 0,0 l 0,0 c 0.0022,0.026 -0.02777,0.0493 -0.06543,0.0503 -0.174818,0.005 -0.43295,-0.0632 -0.678541,-0.0929 -0.61325,-0.29955 -1.37549,-0.85096 -2.268152,-1.82383 -1.845957,-2.02619 -3.845637,-5.54104 -4.343971,-10.61531 0.285797,-2.07199 1.105364,-4.33386 2.731064,-6.22717 1e-6,0 2e-6,0 2e-6,0 1.342835,-1.47665 2.920642,-2.53097 4.535779,-3.56696 1.618273,-1.06029 3.292642,-2.16891 4.625999,-3.50568 0.262509,-0.18808 0.51952,-0.38358 0.770951,-0.58616 1.791678,-1.44354 3.214702,-3.17734 4.295966,-4.96064 0.06715,1.04498 0.351012,2.14322 0.900384,3.14672 0.161065,0.80204 0.460805,1.75241 0.428037,2.97248 -0.174316,1.85183 -1.109311,3.29871 -2.008712,4.3411 -2.208635,2.67688 -5.124984,4.82982 -6.992193,6.20054 -0.155227,0.63069 -0.253222,1.11929 -0.10982,1.55951 0,0 0,1e-5 0,1e-5 0.04917,0.35205 0.271597,0.68067 0.522963,0.90933 1.218615,1.14215 2.619077,1.47348 2.53607,1.65533 0.07671,-0.16805 -1.281278,0.37143 -3.188619,-0.74647 -0.473702,-0.29172 -0.931884,-0.77717 -1.166251,-1.46469 0,0 0,0 0,0 -0.214879,-0.87132 -0.138025,-1.8075 0.122523,-2.73608 1.687398,-1.56365 4.538492,-4.09846 6.482811,-6.7688 0.694505,-1.01098 1.408671,-2.08739 1.367061,-3.0633 0.05051,-0.57547 -0.262407,-1.33708 -0.46384,-2.37153 0.111052,-1.21399 0.645041,-2.48658 1.572434,-3.64149 -0.488773,2.30087 -1.336919,4.59242 -2.639296,6.6091 -0.182516,0.28262 -0.372631,0.55776 -0.570299,0.82501 -1.601597,1.56721 -3.424237,2.76593 -5.094729,3.80522 -1.627535,1.03419 -3.043806,1.89204 -4.123827,3.04745 -1e-6,0 -1e-6,0 -1e-6,0 -1.288839,1.27326 -2.020653,3.01279 -2.362083,4.66423 0.247386,4.52159 1.683721,7.67242 3.109399,9.77423 0.724727,1.07247 1.189259,1.599 1.668766,2.09456 0.146971,0.26842 0.159575,0.37593 0.273981,0.4422 0.02131,0.0123 0.0339,-0.005 0.02329,-0.02 l 0,0 c 0,0 -10e-7,0 -10e-7,0 0.03906,-0.0723 -0.191988,0.0355 -0.05612,-0.0975 z"
           id="path842"
           inkscape:connector-curvature="0"
           inkscape:path-effect="#path-effect844"
           inkscape:original-d="m -63.758549,237.23747 c 1.034326,1.05654 -5.342663,-2.43501 -6.105498,-12.24194 1.649873,-9.79182 11.39547,-7.24965 15.874998,-18.89881 -2.265249,5.78566 5.330177,4.97298 -8.315475,16.25298 -0.985328,3.69416 1.730898,3.68676 3.590774,4.53571"
           sodipodi:nodetypes="ccccc" />
      </g>
      <flowRoot
         transform="matrix(0.26458333,0,0,0.26458333,-4.3733158,0)"
         style="font-style:normal;font-weight:normal;font-size:24px;line-height:1.25;font-family:sans-serif;letter-spacing:0px;word-spacing:0px;fill:#000000;fill-opacity:1;stroke:none"
         id="flowRoot850"
         xml:space="preserve"><flowRegion
           id="flowRegion852"><rect
             y="872.16254"
             x="-200.35715"
             height="39.642891"
             width="106.78571"
             id="rect854"
             style="" /></flowRegion><flowPara
           style="font-style:normal;font-variant:normal;font-weight:bold;font-stretch:normal;font-family:'Caviar Dreams';-inkscape-font-specification:'Caviar Dreams Bold'"
           id="flowPara856">VIKING</flowPara></flowRoot>
    </g>
  </g>
</svg>
